<svg width="212" height="182" viewBox="0 0 212 182" fill="none" xmlns="http://www.w3.org/2000/svg">
<path d="M87.8359 123L59.8359 151H211.336L87.8359 123Z" fill="#ADD603"/>
<path d="M180.336 30.5V123H87.8359L211.336 151V0L180.336 30.5Z" fill="#CCFC04"/>
<path d="M144.341 67.4973L168.841 42.9973C131.835 3.00019 67.8353 6.49984 30.3406 39.9973C80.5717 24.5784 104.728 31.8036 137.953 61.6041C140.148 63.3776 142.281 65.3395 144.341 67.4973Z" fill="#C2F003"/>
<path fill-rule="evenodd" clip-rule="evenodd" d="M48.6889 72.4422C21.1772 103.011 18.0861 128.984 29.3359 182C0.331055 160.002 -19.1645 91.4989 30.3406 39.9973C80.5717 24.5784 104.728 31.8036 137.953 61.6041C111.282 40.0569 75.5252 46.3299 53.8406 66.9513C52.0196 68.683 50.2978 70.516 48.6889 72.4422Z" fill="#CCFC04"/>
<path d="M29.3359 182L53.8406 157.997C27.064 125.298 31.2098 93.3688 48.6889 72.4422C21.1772 103.011 18.0861 128.984 29.3359 182Z" fill="#ADD603"/>
</svg>
