<svg width="32" height="32" viewBox="0 0 32 32" fill="none" xmlns="http://www.w3.org/2000/svg">
<path d="M13.3002 21.6264L9.06055 26.5494H32.0003L13.3002 21.6264Z" fill="#4D4FBE"/>
<path d="M27.3064 5.36264V21.6264H13.3002L32.0003 26.5494V0L27.3064 5.36264Z" fill="#7876FB"/>
<path d="M21.8557 11.8675L25.5654 7.55979C19.9622 0.527323 10.2715 1.14265 4.59411 7.03232C12.2 4.3213 15.8577 5.59166 20.8885 10.8313C21.2209 11.1431 21.5439 11.4881 21.8557 11.8675Z" fill="#9284FB"/>
<path fill-rule="evenodd" clip-rule="evenodd" d="M7.37237 12.7369C3.20661 18.1117 2.73856 22.6783 4.44198 31.9998C0.0501275 28.132 -2.90184 16.0875 4.59411 7.03232C12.2 4.3213 15.8577 5.59166 20.8885 10.8313C16.8501 7.04278 11.4358 8.14573 8.15243 11.7715C7.87669 12.076 7.61597 12.3982 7.37237 12.7369Z" fill="#7876FB"/>
<path d="M4.44198 31.9998L8.15243 27.7796C4.09798 22.0302 4.72572 16.4163 7.37237 12.7369C3.20661 18.1117 2.73856 22.6783 4.44198 31.9998Z" fill="#4D4FBE"/>
</svg>
